# xmcd
#
# Track frame offsets: 
#        150
#        16055
#        39810
#        65107
#
# Disc length: 1147 seconds
#
# Revision: 1
# Processed by: cddbd v1.5.2PL0 Copyright (c) Steve Scherf et al.
# Submitted via: ExactAudioCopy v1.3
#
DISCID=27047904
DTITLE=Blackwood - My Love For You
DYEAR=1997
DGENRE=House
TTITLE0=My Love For You (RMX By Blackwood)
TTITLE1=My Love For You (RMX By Marascia)
TTITLE2=My Love For You (RMX By Marascia-Kortezman)
TTITLE3=My Love For You (RMX By Stefano Noferini)
EXTD=
EXTT0=
EXTT1=
EXTT2=
EXTT3=
PLAYORDER=
